# xmcd
# 
# Track frame offsets:
#     150
#     17986
#     42871
#     60390
#     72565
# 
# Disc length: 1195
# 
# Revision: 0
# Processed by: cddbd v1.5.2PL0 Copyright (c) Steve Scherf et al.
# Submitted via: fre:ac v1.0.17
# 
DISCID=4004a905
DTITLE=Essra Mohawk - Sampler
DYEAR=2003
DGENRE=Blues
TTITLE0=Berlin Wall
TTITLE1=It Was Gonna B U
TTITLE2=Ready For Some Good News
TTITLE3=It's Not About Love
TTITLE4=World Of Peace
EXTD=
EXTT0=
EXTT1=
EXTT2=
EXTT3=
EXTT4=
PLAYORDER=
